<?xml version="1.0" encoding="iso-8859-1"?>
<!-- Generator: Adobe Illustrator 21.0.0, SVG Export Plug-In . SVG Version: 6.00 Build 0)  -->
<svg version="1.1" id="Layer_1" xmlns="http://www.w3.org/2000/svg" xmlns:xlink="http://www.w3.org/1999/xlink" x="0px" y="0px"
	 viewBox="-49 141 512 512" style="enable-background:new -49 141 512 512;" xml:space="preserve">
<g>
	<rect x="-40.983" y="153.292" style="fill:#E6EAEA;" width="495.967" height="487.415"/>
	<rect x="-40.983" y="153.292" style="fill:#E6EAEA;" width="247.983" height="487.415"/>
</g>
<g>
	<rect x="-40.983" y="153.292" style="fill:#CDD4D5;" width="495.967" height="77.651"/>
</g>
<circle style="fill:#4ACFD9;" cx="95.835" cy="191.772" r="12.827"/>
<circle style="fill:#FF8C29;" cx="48.804" cy="191.772" r="12.827"/>
<g>
	<circle style="fill:#F0353D;" cx="1.772" cy="191.772" r="12.827"/>
	<path style="fill:#F0353D;" d="M95.83,538.092c-3.806,0-7.625-1.347-10.686-4.084L3.908,461.323
		c-3.34-2.989-5.277-7.239-5.341-11.72c-0.064-4.481,1.751-8.785,5.005-11.868l81.236-76.96c6.428-6.091,16.576-5.816,22.667,0.612
		s5.816,16.576-0.612,22.666l-68.594,64.983l68.258,61.073c6.599,5.905,7.163,16.041,1.258,22.64
		C104.617,536.289,100.233,538.092,95.83,538.092z"/>
	<path style="fill:#F0353D;" d="M318.17,538.092c3.806,0,7.625-1.347,10.686-4.084l81.236-72.685c3.34-2.989,5.277-7.239,5.34-11.72
		c0.064-4.481-1.751-8.785-5.005-11.868l-81.236-76.96c-6.428-6.091-16.576-5.816-22.667,0.612
		c-6.091,6.428-5.816,16.576,0.612,22.666l68.594,64.983l-68.258,61.073c-6.599,5.905-7.163,16.041-1.258,22.64
		C309.383,536.289,313.767,538.092,318.17,538.092z"/>
	<path style="fill:#F0353D;" d="M164.229,538.094c-2.713,0-5.464-0.69-7.985-2.141c-7.674-4.419-10.313-14.222-5.895-21.895
		l81.237-141.094c4.418-7.675,14.219-10.313,21.894-5.895c7.675,4.419,10.313,14.222,5.895,21.895L178.14,530.058
		C175.173,535.211,169.777,538.094,164.229,538.094z"/>
</g>
<path style="fill:#2F333F;" d="M454.983,145.276H-40.983c-4.427,0-8.017,3.589-8.017,8.017v102.614v384.802
	c0,4.427,3.589,8.017,8.017,8.017h495.967c4.428,0,8.017-3.589,8.017-8.017V255.906V153.292
	C463,148.865,459.412,145.276,454.983,145.276z M446.967,161.309v60.58H-32.967v-60.58H446.967z M-32.967,632.691V237.923h479.933
	v394.768H-32.967z"/>
</svg>
