<?xml version="1.0" encoding="iso-8859-1"?>
<!-- Generator: Adobe Illustrator 21.0.0, SVG Export Plug-In . SVG Version: 6.00 Build 0)  -->
<svg version="1.1" id="Layer_1" xmlns="http://www.w3.org/2000/svg" xmlns:xlink="http://www.w3.org/1999/xlink" x="0px" y="0px"
	 viewBox="-49 141 512 512" style="enable-background:new -49 141 512 512;" xml:space="preserve">
<rect x="339.543" y="311.489" style="fill:#E6EAEA;" width="102.614" height="188.125"/>
<rect x="339.543" y="448.307" style="fill:#1DE97E;" width="102.614" height="51.307"/>
<path style="fill:#1D9654;" d="M399.401,481.977h-17.102c-4.427,0-8.017-3.588-8.017-8.017c0-4.428,3.589-8.017,8.017-8.017h17.102
	c4.427,0,8.017,3.588,8.017,8.017C407.418,478.389,403.828,481.977,399.401,481.977z"/>
<rect x="-11.054" y="397" style="fill:#E6EAEA;" width="290.739" height="247.983"/>
<rect x="-28.157" y="610.779" style="fill:#7A6DFF;" width="324.944" height="34.205"/>
<rect x="14.599" y="149.017" style="fill:#E6EAEA;" width="256.534" height="188.125"/>
<rect x="219.827" y="149.017" style="fill:#FF547E;" width="51.307" height="188.125"/>
<path style="fill:#C12955;" d="M245.48,259.647c-4.427,0-8.017-3.588-8.017-8.017v-25.653c0-4.428,3.589-8.017,8.017-8.017
	c4.427,0,8.017,3.588,8.017,8.017v25.653C253.497,256.059,249.908,259.647,245.48,259.647z"/>
<path style="fill:#2F333F;" d="M442.157,303.472h-45.579c-13.228-20.102-30.817-37.459-51.105-50.378
	c-20.034-12.757-42.828-21.224-66.323-24.716v-79.361c0-4.428-3.589-8.017-8.017-8.017h-51.307H14.599
	c-4.427,0-8.017,3.588-8.017,8.017v188.125c0,4.428,3.589,8.017,8.017,8.017h76.982c-4.53,14.18-7.162,28.853-7.852,43.825h-94.783
	c-4.427,0-8.017,3.588-8.017,8.017v205.762h-9.086c-4.427,0-8.017,3.588-8.017,8.017v34.205c0,4.428,3.589,8.017,8.017,8.017h17.102
	h290.739h17.102c4.427,0,8.017-3.588,8.017-8.017v-34.205c0-4.428-3.589-8.017-8.017-8.017h-9.086v-38.617
	c37.367-7.488,71.139-27.334,96.041-56.515h58.414c4.427,0,8.017-3.588,8.017-8.017v-51.307V311.489
	C450.173,307.06,446.584,303.472,442.157,303.472z M434.14,440.29h-86.58V319.505h44.624c0.005,0,0.011,0.001,0.017,0.001
	c0.005,0,0.011-0.001,0.015-0.001h41.924V440.29z M376.913,303.472h-37.371c-4.427,0-8.017,3.588-8.017,8.017v136.818v51.307
	c0,4.428,3.589,8.017,8.017,8.017h22.267c-20.521,20.013-46.14,33.911-74.109,40.127V397c0-4.428-3.589-8.017-8.017-8.017H99.786
	c0.765-15.029,3.692-29.717,8.723-43.825h111.318h51.307c4.427,0,8.017-3.588,8.017-8.017v-92.551
	C317.808,250.977,353.073,272.296,376.913,303.472z M263.117,235.395c0,0.01,0,0.019,0,0.029v93.701h-35.273v-90.978v-81.114h35.273
	V235.395z M22.616,157.033H211.81v81.114v90.978H102.952H22.616V157.033z M91.56,405.017h180.109v152.432v45.314H-3.038V405.017
	H91.56z M288.77,636.967h-9.086H-11.054h-9.086v-18.171h9.086h290.739h9.086V636.967z M379.993,491.597H347.56v-35.273h86.58v35.273
	H379.993z"/>
</svg>
