<?xml version="1.0" encoding="iso-8859-1"?>
<!-- Generator: Adobe Illustrator 21.0.0, SVG Export Plug-In . SVG Version: 6.00 Build 0)  -->
<svg version="1.1" id="Layer_1" xmlns="http://www.w3.org/2000/svg" xmlns:xlink="http://www.w3.org/1999/xlink" x="0px" y="0px"
	 viewBox="-49 141 512 512" style="enable-background:new -49 141 512 512;" xml:space="preserve">
<polygon style="fill:#CDD4D5;" points="327.046,310.216 266.711,249.881 317.996,198.596 384.365,168.427 408.499,192.562 
	378.331,258.931 "/>
<g>
	
		<rect x="103.875" y="342.92" transform="matrix(0.7071 -0.7071 0.7071 0.7071 -191.0098 258.8317)" style="fill:#9BAAAB;" width="226.115" height="34.131"/>
</g>
<rect x="-6.07" y="461.399" transform="matrix(0.7071 -0.7071 0.7071 0.7071 -347.8857 193.8525)" style="fill:#31BDFF;" width="132.256" height="110.924"/>
<g>
	<polygon style="fill:#7A6DFF;" points="25.369,617.927 -41.001,551.559 -25.917,524.408 52.519,602.844 	"/>
	<polygon style="fill:#7A6DFF;" points="109.839,412.787 164.14,467.089 146.04,509.324 67.604,430.888 	"/>
</g>
<g>
	<path style="fill:#FF547E;" d="M13.302,571.624c-2.047,0-4.095-0.782-5.656-2.343c-3.124-3.124-3.124-8.189,0-11.313l93.52-93.52
		c3.124-3.124,8.189-3.124,11.312,0c3.124,3.124,3.124,8.189,0,11.312l-93.52,93.52C17.396,570.844,15.349,571.624,13.302,571.624z"
		/>
	<path style="fill:#FF547E;" d="M37.435,589.726c-2.048,0-4.095-0.782-5.656-2.343c-3.124-3.124-3.124-8.189,0-11.313l90.503-90.503
		c3.124-3.124,8.189-3.124,11.312,0c3.124,3.124,3.124,8.189,0,11.313l-90.503,90.503C41.53,588.945,39.483,589.726,37.435,589.726z
		"/>
	<path style="fill:#FF547E;" d="M-4.798,547.491c-2.047,0-4.095-0.781-5.656-2.343c-3.124-3.124-3.124-8.189,0-11.312l90.502-90.503
		c3.124-3.124,8.189-3.124,11.313,0c3.124,3.124,3.124,8.189,0,11.312L0.858,545.147C-0.704,546.709-2.752,547.491-4.798,547.491z"
		/>
</g>
<polygon style="fill:#9BAAAB;" points="102.038,320.072 194.049,412.084 286.061,504.095 316.229,473.928 224.217,381.916 
	132.205,289.905 "/>
<g>
	<polygon style="fill:#CDD4D5;" points="59.803,181.3 117.122,238.62 83.937,271.804 50.753,304.988 -6.566,247.67 -36.734,277.837 
		32.652,347.223 99.02,341.19 126.172,314.038 153.323,286.887 159.356,220.519 89.97,151.133 	"/>
	<polygon style="fill:#CDD4D5;" points="424.833,546.33 367.513,489.012 334.33,522.196 301.145,555.38 358.463,612.699 
		328.296,642.867 258.91,573.481 264.944,507.113 292.095,479.962 319.246,452.81 385.615,446.777 455.001,516.163 	"/>
</g>
<path style="fill:#2F333F;" d="M460.657,510.507l-69.386-69.386c-1.679-1.679-4.017-2.525-6.38-2.31l-66.37,6.034
	c-1.863,0.17-3.608,0.987-4.932,2.31l-6.411,6.41l-74.185-74.185l75.952-75.952l12.444,12.445c1.561,1.561,3.609,2.343,5.656,2.343
	s4.095-0.781,5.656-2.343l51.285-51.285c0.678-0.678,1.229-1.473,1.625-2.346l30.167-66.37c1.38-3.036,0.733-6.609-1.625-8.967
	l-24.135-24.135c-2.358-2.358-5.93-3.007-8.967-1.625l-66.37,30.169c-0.874,0.397-1.668,0.947-2.347,1.625l-51.281,51.286
	c-3.124,3.124-3.124,8.189,0,11.312l12.445,12.444l-75.952,75.952l-44.978-44.978l6.41-6.41c1.324-1.324,2.141-3.069,2.31-4.932
	l6.034-66.37c0.215-2.365-0.631-4.703-2.31-6.38l-69.387-69.386c-3.124-3.124-8.189-3.124-11.313,0l-30.166,30.167
	c-3.124,3.124-3.124,8.189,0,11.312l51.662,51.662l-55.056,55.056L-0.91,242.014c-3.124-3.124-8.189-3.124-11.312,0l-30.169,30.167
	c-3.124,3.124-3.124,8.189,0,11.312l69.386,69.386c1.507,1.507,3.544,2.343,5.656,2.343c0.241,0,0.483-0.011,0.725-0.033
	l66.37-6.034c1.863-0.17,3.608-0.987,4.932-2.31l6.41-6.41l44.978,44.978l-31.144,31.144l-9.428-9.428
	c-2.312-2.311-5.8-2.984-8.808-1.696l-42.089,18.038c-0.005,0.002-0.011,0.004-0.016,0.006l-0.13,0.055
	c-0.062,0.027-0.119,0.061-0.18,0.089c-0.164,0.075-0.326,0.151-0.486,0.238c-0.1,0.054-0.195,0.114-0.291,0.172
	c-0.125,0.075-0.25,0.149-0.372,0.231c-0.127,0.085-0.246,0.177-0.367,0.27c-0.085,0.065-0.172,0.127-0.255,0.196
	c-0.145,0.121-0.283,0.249-0.418,0.378c-0.045,0.043-0.093,0.079-0.137,0.124l-0.091,0.091c-0.009,0.009-0.017,0.017-0.026,0.026
	l-93.268,93.268c-0.002,0.001-0.003,0.003-0.005,0.005l-0.129,0.129c-0.049,0.049-0.091,0.103-0.139,0.154
	c-0.118,0.125-0.237,0.251-0.348,0.384c-0.083,0.099-0.159,0.204-0.237,0.306c-0.078,0.103-0.157,0.205-0.229,0.312
	c-0.098,0.144-0.186,0.291-0.274,0.439c-0.035,0.06-0.076,0.115-0.11,0.176l-0.09,0.161c-0.001,0.002-0.002,0.003-0.003,0.005
	l-14.992,26.985c-1.734,3.122-1.189,7.016,1.336,9.541l66.37,66.369c1.539,1.539,3.587,2.343,5.659,2.343
	c1.327,0,2.663-0.33,3.882-1.007l27.15-15.084c0.066-0.036,0.125-0.08,0.19-0.118c0.142-0.084,0.285-0.17,0.422-0.263
	c0.111-0.076,0.215-0.157,0.321-0.237c0.1-0.076,0.202-0.15,0.299-0.231c0.134-0.111,0.26-0.229,0.385-0.348
	c0.05-0.048,0.105-0.09,0.154-0.139l0.131-0.131c0.001-0.001,0.002-0.002,0.003-0.003l93.385-93.385
	c0.103-0.103,0.194-0.213,0.29-0.321c0.065-0.073,0.133-0.142,0.196-0.216c0.02-0.023,0.044-0.046,0.063-0.07
	c0.199-0.244,0.377-0.5,0.543-0.76c0.035-0.057,0.067-0.115,0.101-0.172c0.174-0.289,0.329-0.585,0.463-0.888
	c0.012-0.027,0.028-0.049,0.039-0.076l0.051-0.121c0.004-0.01,0.009-0.02,0.013-0.03l18.036-42.084
	c1.288-3.007,0.616-6.494-1.696-8.808l-9.428-9.428l31.144-31.144l74.185,74.185l-6.41,6.41c-1.324,1.324-2.141,3.069-2.31,4.932
	l-6.034,66.37c-0.215,2.365,0.631,4.703,2.31,6.38l69.386,69.386c1.561,1.561,3.609,2.343,5.656,2.343s4.095-0.781,5.656-2.343
	l30.167-30.167c3.124-3.124,3.124-8.189,0-11.312l-51.663-51.662l55.056-55.056l51.663,51.662c3.124,3.124,8.189,3.124,11.312,0
	l30.167-30.167C463.781,518.695,463.781,513.63,460.657,510.507z M277.01,483.732l-79.84-79.841l0,0l0,0l-24.135-24.135
	L122.4,329.122l18.855-18.855l50.634,50.635l24.134,24.134h0.001l79.841,79.841L277.01,483.732z M136.235,427.87l31.144-31.144
	l12.821,12.821l-31.144,31.144L136.235,427.87z M297.633,292.116l-75.952,75.952l-12.821-12.822l75.952-75.952L297.633,292.116z
	 M322.627,205.278l60.002-27.274l16.294,16.294l-27.274,60.002l-44.603,44.603l-12.444-12.444l-24.134-24.134l-12.444-12.444
	L322.627,205.278z M95.412,333.486l-59.754,5.432l-61.08-61.08l18.855-18.855l51.662,51.662c3.124,3.124,8.189,3.124,11.312,0
	l66.37-66.37c3.124-3.124,3.124-8.189,0-11.312L71.115,181.3l18.855-18.855l61.08,61.08l-5.432,59.754l-10.02,10.02l-30.169,30.169
	L95.412,333.486z M101.15,475.747c0.005,0.005,0.01,0.012,0.015,0.016c0.005,0.005,0.011,0.01,0.016,0.014l21.101,21.101
	l12.444,12.444L52.519,591.53l-33.561-33.561l-33.561-33.561L67.604,442.2l12.444,12.444L101.15,475.747z M26.759,608.004
	l-57.836-57.836l7.003-12.606l31.719,31.719L39.365,601L26.759,608.004z M143.342,495.312l-9.745-9.745l-21.064-21.063
	c-0.017-0.018-0.033-0.038-0.05-0.055c-0.018-0.017-0.037-0.033-0.055-0.05L91.36,443.332l-9.747-9.747l26.397-11.313l11.255,11.254
	l24.134,24.134l11.254,11.255L143.342,495.312z M424.833,535.018l-51.663-51.662c-3.124-3.124-8.189-3.124-11.312,0l-66.37,66.37
	c-3.124,3.124-3.124,8.189,0,11.312l51.663,51.662l-18.855,18.855l-61.08-61.08l5.432-59.754l10.02-10.02l30.169-30.169
	c0.002-0.002,0.003-0.003,0.005-0.005l10.014-10.013l59.754-5.432l61.08,61.081L424.833,535.018z"/>
</svg>
