<?xml version="1.0" encoding="utf-8"?>
<!-- Generator: Adobe Illustrator 21.0.0, SVG Export Plug-In . SVG Version: 6.00 Build 0)  -->
<svg version="1.1" id="Layer_1" xmlns="http://www.w3.org/2000/svg" xmlns:xlink="http://www.w3.org/1999/xlink" x="0px" y="0px"
	 viewBox="0 0 198 51.7" style="enable-background:new 0 0 198 51.7;" xml:space="preserve">
<style type="text/css">
	.st0{fill:#7A6DFF;}
	.st1{fill:#FF547E;}
</style>
<g>
	<path class="st0" d="M30.1,1.6v11.2h-5.8v-2.4c0-1.7-0.5-3-1.5-3.8c-1-0.8-2.2-1.2-3.7-1.2c-1.2,0-2.2,0.3-3,0.8
		c-0.9,0.5-1.6,1.4-2.1,2.7s-1,2.9-1.2,5c-0.3,2.1-0.4,4.7-0.4,7.8c0,2.6,0.1,4.8,0.3,6.7c0.2,1.9,0.6,3.5,1.1,4.8
		c0.5,1.3,1.2,2.2,2.1,2.9c0.9,0.6,2.1,1,3.5,1c0.6,0,1.3-0.1,2-0.2c0.7-0.1,1.3-0.3,1.8-0.6V22.7h-5.9v-4.8h12.9v20.6
		c-0.5,0.4-1.2,0.8-2,1.2c-0.8,0.4-1.7,0.7-2.7,1s-2.1,0.5-3.2,0.7c-1.1,0.2-2.2,0.2-3.4,0.2c-2.9,0-5.3-0.5-7.2-1.6
		C9.8,39,8.2,37.5,7,35.7c-1.2-1.8-2.1-4-2.6-6.4c-0.5-2.4-0.8-5.1-0.8-7.9c0-3,0.3-5.8,0.9-8.3C5,10.6,5.9,8.4,7.1,6.6
		c1.2-1.8,2.6-3.3,4.3-4.3c1.7-1,3.7-1.5,6-1.5c1.6,0,3,0.2,4.2,0.7c1.2,0.5,2.1,1.2,2.8,2.1h0.2v-2H30.1z"/>
	<path class="st0" d="M49.1,11.7c2.2,0,4.2,0.4,5.8,1.2c1.6,0.8,3,2,4,3.4c1.1,1.4,1.9,3,2.4,4.9c0.5,1.8,0.8,3.8,0.8,5.8
		s-0.3,3.9-0.8,5.6c-0.5,1.8-1.3,3.3-2.4,4.6c-1.1,1.3-2.4,2.4-4,3.1c-1.6,0.8-3.6,1.1-5.8,1.1c-2.2,0-4.1-0.4-5.8-1.1
		c-1.6-0.8-3-1.8-4.1-3.1c-1.1-1.3-1.9-2.9-2.4-4.6c-0.5-1.8-0.8-3.6-0.8-5.6s0.3-3.9,0.8-5.8c0.5-1.8,1.3-3.5,2.4-4.9
		c1.1-1.4,2.4-2.5,4.1-3.4C45,12.1,46.9,11.7,49.1,11.7z M49.1,16.5c-2,0-3.4,0.9-4.3,2.8c-0.9,1.9-1.3,4.4-1.3,7.6
		c0,3.2,0.4,5.6,1.3,7.2c0.9,1.6,2.3,2.5,4.3,2.5c2,0,3.4-0.8,4.3-2.5c0.9-1.6,1.3-4.1,1.3-7.2c0-3.2-0.4-5.7-1.3-7.6
		C52.5,17.4,51.1,16.5,49.1,16.5z"/>
	<path class="st0" d="M79.6,11.7c2.2,0,4.2,0.4,5.8,1.2c1.6,0.8,3,2,4,3.4c1.1,1.4,1.9,3,2.4,4.9c0.5,1.8,0.8,3.8,0.8,5.8
		s-0.3,3.9-0.8,5.6c-0.5,1.8-1.3,3.3-2.4,4.6c-1.1,1.3-2.4,2.4-4,3.1c-1.6,0.8-3.6,1.1-5.8,1.1c-2.2,0-4.1-0.4-5.8-1.1
		c-1.6-0.8-3-1.8-4.1-3.1c-1.1-1.3-1.9-2.9-2.4-4.6c-0.5-1.8-0.8-3.6-0.8-5.6s0.3-3.9,0.8-5.8c0.5-1.8,1.3-3.5,2.4-4.9
		c1.1-1.4,2.4-2.5,4.1-3.4C75.4,12.1,77.4,11.7,79.6,11.7z M79.6,16.5c-2,0-3.4,0.9-4.3,2.8c-0.9,1.9-1.3,4.4-1.3,7.6
		c0,3.2,0.4,5.6,1.3,7.2c0.9,1.6,2.3,2.5,4.3,2.5c2,0,3.4-0.8,4.3-2.5c0.9-1.6,1.3-4.1,1.3-7.2c0-3.2-0.4-5.7-1.3-7.6
		C82.9,17.4,81.5,16.5,79.6,16.5z"/>
	<path class="st0" d="M122.9,1.6v35h3.9v4.3h-11v-2.3c-1,0.9-2.3,1.5-3.8,2c-1.5,0.5-3,0.8-4.6,0.8c-3.2,0-5.7-1.2-7.5-3.5
		c-1.8-2.4-2.7-6-2.7-11c0-2.8,0.3-5.1,0.8-7c0.6-1.9,1.3-3.5,2.3-4.7c1-1.2,2.2-2.1,3.5-2.6c1.4-0.5,2.9-0.8,4.6-0.8
		c1.4,0,2.7,0.2,3.8,0.5c1.1,0.3,2.2,0.9,3.1,1.5V5.9h-4.2V1.6H122.9z M115.4,18.8c-0.6-0.6-1.3-1.1-2.1-1.4
		c-0.8-0.3-1.7-0.5-2.6-0.5c-2,0-3.5,0.8-4.5,2.2c-1,1.5-1.5,4-1.5,7.4c0,3.2,0.4,5.6,1.3,7.2c0.9,1.6,2.3,2.4,4.1,2.4
		c0.9,0,1.8-0.2,2.8-0.5c1-0.4,1.8-0.9,2.5-1.5V18.8z"/>
	<path class="st1" d="M151.4,22.3v-1.2c0-1.4-0.2-2.5-0.6-3.5s-1-1.8-1.7-2.4c-0.7-0.6-1.6-1.1-2.5-1.4c-1-0.3-2-0.4-3.2-0.4
		c-1.2,0-2.2,0.1-3.2,0.4c-1,0.3-1.8,0.7-2.5,1.2c-0.7,0.6-1.3,1.2-1.7,2.1c-0.4,0.8-0.6,1.7-0.6,2.8v1.5h-2.3v-1.5
		c0-1.3,0.3-2.5,0.8-3.5c0.5-1,1.3-1.9,2.2-2.6c0.9-0.7,2-1.2,3.3-1.6c1.3-0.4,2.7-0.6,4.2-0.6c1.4,0,2.8,0.2,4.1,0.5
		c1.3,0.3,2.4,0.9,3.4,1.6c1,0.7,1.7,1.7,2.3,2.8c0.5,1.1,0.8,2.5,0.8,4v15.5c0,1.4,0.2,2.4,0.7,2.8c0.4,0.4,1.1,0.7,1.9,0.7
		c0.5,0,0.9,0,1.1-0.1c0.3-0.1,0.6-0.2,1-0.4v1.8c-0.4,0.2-0.7,0.3-1.1,0.4c-0.4,0.1-0.9,0.1-1.6,0.1c-0.9,0-1.7-0.1-2.3-0.3
		c-0.6-0.2-1.1-0.5-1.4-1c-0.3-0.4-0.6-1-0.8-1.7c-0.1-0.7-0.2-1.6-0.2-2.6c-1.2,1.6-2.6,2.9-4.3,4c-1.7,1.1-3.8,1.6-6.3,1.6
		c-1.5,0-2.8-0.2-4-0.6s-2.1-0.9-2.9-1.6s-1.3-1.5-1.7-2.4c-0.4-0.9-0.6-1.9-0.6-2.9c0-1,0.2-1.9,0.5-2.8c0.4-0.9,0.9-1.7,1.7-2.5
		c0.8-0.8,1.8-1.5,3.1-2.1c1.3-0.6,2.8-1.2,4.6-1.6L151.4,22.3z M141.2,39.7c1.2,0,2.3-0.2,3.3-0.5s1.9-0.8,2.8-1.4s1.6-1.3,2.3-2.1
		c0.7-0.8,1.3-1.7,1.9-2.6v-9.1l-8.9,2.2c-1.5,0.4-2.8,0.8-3.9,1.3c-1.1,0.5-1.9,1.1-2.5,1.7c-0.6,0.6-1.1,1.3-1.4,2
		c-0.3,0.7-0.4,1.5-0.4,2.4c0,1.7,0.6,3.2,1.7,4.4C137.2,39.1,138.9,39.7,141.2,39.7z"/>
	<path class="st1" d="M174.6,12.2v1.7h-5.2l8.8,22.8h0.2l8.9-22.8H183v-1.7h11.5v1.7H190l-12.6,31.3c-0.9,2.1-2,3.6-3.5,4.5
		S170.3,51,168,51c-0.6,0-1.1,0-1.7-0.1c-0.6,0-1.1-0.1-1.7-0.3v-1.7c1.2,0.2,2.2,0.4,3.1,0.4c1.7,0,3.1-0.4,4.4-1.1
		c1.2-0.8,2.2-2,2.9-3.8l1.9-4.8l-10.3-25.8h-4.2v-1.7H174.6z"/>
</g>
</svg>
